<svg xmlns="http://www.w3.org/2000/svg" id="Layer_1" data-name="Layer 1" viewBox="0 0 379.865 60.354"><defs><style>.cls-1{fill:#fff}</style></defs><title>HERO-dark</title><rect width="47" height="5" x="106.505" y="28.435" class="cls-1" rx="2"/><rect width="47" height="5" x="106.505" y="3.435" class="cls-1" rx="2"/><rect width="47" height="5" x="106.505" y="54.435" class="cls-1" rx="2"/><path d="M67.45554,4.65636V59.23009a2.29517,2.29517,0,0,1-4.59033,0v-23.207c-52.87451.33984-53.72461-.59473-53.72461-.085v23.292a2.21459,2.21459,0,0,1-2.21,2.29492,2.28525,2.28525,0,0,1-2.29541-2.29492V4.65636A2.28556,2.28556,0,0,1,6.93064,2.36143a2.21488,2.21488,0,0,1,2.21,2.29493v26.8623c.25537-.25488.93506,0,53.72461,0V4.65636a2.29517,2.29517,0,0,1,4.59033,0Z" class="cls-1" transform="translate(-4.63523 -1.171)"/><path d="M270.603,56.76524a2.22221,2.22221,0,0,1-.25489,3.23047,2.31173,2.31173,0,0,1-1.44531.50977,2.03224,2.03224,0,0,1-1.78516-.85059L252.8364,38.91368c.93457-.25488-5.78027-.50976-38.168-.25488V58.21056a2.29541,2.29541,0,0,1-4.59082,0V3.63634a2.28638,2.28638,0,0,1,2.2959-2.29541L252.15672,1.171c11.30566,0,18.95605,4.84571,18.95605,17.68165,0,14.19628-3.99512,17.936-12.751,19.29541Zm-19.80665-22.6123c13.94043,0,15.81055-3.48486,15.81055-15.30029,0-9.77588-3.56933-12.83594-14.11035-13.09131-1.36035,0-5.35547.085-37.82813.085.33985,28.47656,0,28.30664.50977,28.30664Z" class="cls-1" transform="translate(-4.63523 -1.171)"/><path d="M338.51218,60.76036a16.8695,16.8695,0,0,1-16.83105-16.831v-25.502a16.8695,16.8695,0,0,1,16.83105-16.831h29.15723a16.8695,16.8695,0,0,1,16.83106,16.83105v25.502a16.8695,16.8695,0,0,1-16.83106,16.831Zm0-54.65869A12.2086,12.2086,0,0,0,326.271,18.42735v25.502A12.20849,12.20849,0,0,0,338.51218,56.2545h29.15723a12.33465,12.33465,0,0,0,12.32617-12.32519v-25.502A12.33475,12.33475,0,0,0,367.66941,6.10167Z" class="cls-1" transform="translate(-4.63523 -1.171)"/></svg>